<?xml version="1.0" encoding="UTF-8" standalone="no"?><!DOCTYPE svg PUBLIC "-//W3C//DTD SVG 1.1//EN" "http://www.w3.org/Graphics/SVG/1.1/DTD/svg11.dtd"><svg width="100%" height="100%" viewBox="0 0 1035 521" version="1.1" xmlns="http://www.w3.org/2000/svg" xmlns:xlink="http://www.w3.org/1999/xlink" xml:space="preserve" xmlns:serif="http://www.serif.com/" style="fill-rule:evenodd;clip-rule:evenodd;stroke-linecap:round;stroke-linejoin:round;stroke-miterlimit:1.5;"><rect x="13.64" y="60.817" width="594.767" height="444.743" style="fill:none;stroke:#333;stroke-width:1px;"/><rect x="623.703" y="61.049" width="389.771" height="444.629" style="fill:none;stroke:#333;stroke-width:1px;"/><path d="M149.763,453.502c-11.67,-31.97 -34.13,-53.633 -59.897,-53.633c-25.51,0 -47.779,21.234 -59.545,52.68" style="fill:none;stroke:#4876b1;stroke-width:3px;"/><path d="M152.376,268.013c-11.107,34.594 -34.507,58.455 -61.55,58.455c-26.332,0 -49.21,-22.624 -60.649,-55.751" style="fill:none;stroke:#4876b1;stroke-opacity:0.83;stroke-width:3px;"/><path d="M306.865,452.972c-11.82,-31.137 -33.975,-52.117 -59.333,-52.117c-25.456,0 -47.683,21.143 -59.469,52.479" style="fill:none;stroke:#688ebe;stroke-opacity:0.83;stroke-width:3px;"/><path d="M307.658,317.156c-11.8,31.252 -33.997,52.326 -59.412,52.326c-25.487,0 -47.738,-21.195 -59.512,-52.594" style="fill:none;stroke:#688ebe;stroke-opacity:0.83;stroke-width:3px;"/><path d="M446.338,504.397c0,-57.314 -24.334,-103.845 -54.307,-103.845c-29.973,0 -54.307,46.531 -54.307,103.845" style="fill:none;stroke:#5c9a2e;stroke-opacity:0.83;stroke-width:4px;"/><path d="M451.059,97.141c0,72.598 -25.504,131.539 -56.919,131.539c-31.415,0 -56.919,-58.941 -56.919,-131.539" style="fill:none;stroke:#5c9a2e;stroke-width:4px;"/><path d="M576.015,502.151c0,-57.314 -24.335,-103.845 -54.308,-103.845c-29.972,0 -54.307,46.531 -54.307,103.845" style="fill:none;stroke:#e27f27;stroke-width:4px;"/><path d="M581.766,214.136c0,72.599 -25.505,131.539 -56.919,131.539c-31.415,0 -56.92,-58.94 -56.92,-131.539" style="fill:none;stroke:#e27f27;stroke-width:4px;"/><text x="67.74px" y="499.924px" style="font-family:'Montserrat-Bold', 'Montserrat';font-weight:700;font-size:18px;fill:#688ebe;">GGA</text><text x="94.425px" y="370.353px" style="font-family:'Montserrat-Bold', 'Montserrat';font-weight:700;font-size:18px;fill:#688ebe;">1.<tspan x="106.377px " y="370.353px ">3</tspan>8 e<tspan x="145.005px " y="370.353px ">V</tspan></text><text x="256.328px" y="390.717px" style="font-family:'Montserrat-Bold', 'Montserrat';font-weight:700;font-size:18px;fill:#688ebe;">0<tspan x="268.316px 273.212px 283.688px " y="390.717px 390.717px 390.717px ">.35</tspan> e<tspan x="310.49px " y="390.717px ">V</tspan></text><text x="400.451px" y="324.862px" style="font-family:'Montserrat-Bold', 'Montserrat';font-weight:700;font-size:18px;fill:#688ebe;">2<tspan x="411.251px 415.733px " y="324.862px 324.862px ">.0</tspan>8 e<tspan x="455.927px " y="324.862px ">V</tspan></text><text x="531.425px" y="377.409px" style="font-family:'Montserrat-Bold', 'Montserrat';font-weight:700;font-size:18px;fill:#688ebe;">0<tspan x="543.413px 547.841px 558.875px " y="377.409px 377.409px 377.409px ">.73</tspan> e<tspan x="585.623px " y="377.409px ">V</tspan></text><text x="202.11px" y="500.14px" style="font-family:'Montserrat-Bold', 'Montserrat';font-weight:700;font-size:18px;fill:#688ebe;">GGA<tspan x="243.24px 253.77px " y="500.14px 500.14px ">+S</tspan>OC</text><g><text x="650.992px" y="167.745px" style="font-family:'Montserrat-Bold', 'Montserrat';font-weight:700;font-size:18px;fill:#688ebe;">MA [ 0 0 1 ]</text><text x="651.622px" y="212.313px" style="font-family:'Montserrat-Bold', 'Montserrat';font-weight:700;font-size:18px;fill:#688ebe;">MA [ 0 1 1 ]</text><text x="654.03px" y="257.471px" style="font-family:'Montserrat-Bold', 'Montserrat';font-weight:700;font-size:18px;fill:#688ebe;">MA [ 1 1 1 ]</text></g><g><text x="651.118px" y="381.759px" style="font-family:'Montserrat-Bold', 'Montserrat';font-weight:700;font-size:18px;fill:#688ebe;">MA [ 0 0 1 ]</text><text x="651.748px" y="426.326px" style="font-family:'Montserrat-Bold', 'Montserrat';font-weight:700;font-size:18px;fill:#688ebe;">MA [ 0 1 1 ]</text><text x="654.156px" y="471.484px" style="font-family:'Montserrat-Bold', 'Montserrat';font-weight:700;font-size:18px;fill:#688ebe;">MA [ 1 1 1 ]</text></g><text x="376.864px" y="500.816px" style="font-family:'Montserrat-BoldItalic', 'Montserrat';font-weight:700;font-style:italic;font-size:18px;fill:#5c9a2e;">GW</text><g transform="matrix(1,0,0,1,408.245,-80.7233)"><text x="71.906px" y="580.924px" style="font-family:'Montserrat-BoldItalic', 'Montserrat';font-weight:700;font-style:italic;font-size:18px;fill:#e27f27;">GW</text><text x="106.718px" y="580.924px" style="font-family:'Montserrat-Bold', 'Montserrat';font-weight:700;font-size:18px;fill:#e27f27;">+<tspan x="117.248px " y="580.924px ">S</tspan>OC</text></g><path d="M88.916,332.867l-2.829,0.051l3.267,-3.388l3.389,3.267l-2.829,0.051l1.107,60.902l2.829,-0.051l-3.267,3.388l-3.389,-3.267l2.829,-0.052l-1.107,-60.901Z" style="fill:none;stroke:#688ebe;stroke-width:2px;"/><path d="M246.121,376.525l-2.829,0.052l3.267,-3.389l3.389,3.268l-2.829,0.051l0.318,17.487l2.828,-0.051l-3.267,3.388l-3.388,-3.267l2.828,-0.052l-0.317,-17.487Z" style="fill:none;stroke:#688ebe;stroke-width:2px;"/><path d="M392.852,246.406l-2.829,0.052l3.267,-3.388l3.389,3.267l-2.829,0.051l2.6,143.008l2.828,-0.052l-3.267,3.389l-3.388,-3.268l2.828,-0.051l-2.599,-143.008Z" style="fill:none;stroke:#688ebe;stroke-width:2px;"/><path d="M522.916,355.751l-2.828,0.051l3.267,-3.388l3.388,3.267l-2.828,0.052l0.62,34.149l2.829,-0.052l-3.267,3.388l-3.389,-3.267l2.829,-0.051l-0.621,-34.149Z" style="fill:none;stroke:#688ebe;stroke-width:2px;"/><text x="167.984px" y="41.466px" style="font-family:'Montserrat-Bold', 'Montserrat';font-weight:700;font-size:24px;fill:#464545;">E<tspan x="183.968px 197.96px " y="41.466px 41.466px ">vo</tspan>lution of Ban<tspan x="375.848px " y="41.466px ">d</tspan> Gap</text><text x="761.455px" y="43.963px" style="font-family:'Montserrat-Bold', 'Montserrat';font-weight:700;font-size:24px;fill:#464545;">Eff<tspan x="795.967px 811.111px 825.487px " y="43.963px 43.963px 43.963px ">ect</tspan> of MA</text><rect x="623.227" y="60.284" width="390.291" height="57.89" style="fill:#678dbc;fill-opacity:0.35;"/><rect x="623.561" y="283.3" width="390.291" height="57.89" style="fill:#678dbc;fill-opacity:0.35;"/><path d="M817.247,122.436l0,156.283" style="fill:none;stroke:#688ebe;stroke-opacity:0.39;stroke-width:2px;"/><path d="M818.355,345.577l0,156.283" style="fill:none;stroke:#688ebe;stroke-opacity:0.39;stroke-width:2px;"/><text x="781.953px" y="96.702px" style="font-family:'Montserrat-Bold', 'Montserrat';font-weight:700;font-size:24px;fill:#464545;">C<tspan x="799.209px " y="96.702px ">u</tspan>bic</text><text x="748.929px" y="318.357px" style="font-family:'Montserrat-Bold', 'Montserrat';font-weight:700;font-size:24px;fill:#464545;">T<tspan x="762.441px " y="318.357px ">e</tspan>tr<tspan x="798.201px 813.153px " y="318.357px 318.357px ">ag</tspan>onal</text><g><text x="872.444px" y="163.676px" style="font-family:'Montserrat-Bold', 'Montserrat';font-weight:700;font-size:18px;fill:#688ebe;">1.54 e<tspan x="923.42px " y="163.676px ">V</tspan></text><text x="873.164px" y="208.244px" style="font-family:'Montserrat-Bold', 'Montserrat';font-weight:700;font-size:18px;fill:#688ebe;">1.51 e<tspan x="918.794px " y="208.244px ">V</tspan></text><text x="870.469px" y="253.402px" style="font-family:'Montserrat-Bold', 'Montserrat';font-weight:700;font-size:18px;fill:#688ebe;">1.4<tspan x="893.887px " y="253.402px ">7</tspan> e<tspan x="921.139px " y="253.402px ">V</tspan></text></g><g><text x="875.451px" y="379.419px" style="font-family:'Montserrat-Bold', 'Montserrat';font-weight:700;font-size:18px;fill:#688ebe;">1.<tspan x="886.989px " y="379.419px ">6</tspan>8 e<tspan x="926.427px " y="379.419px ">V</tspan></text><text x="874.065px" y="423.987px" style="font-family:'Montserrat-Bold', 'Montserrat';font-weight:700;font-size:18px;fill:#688ebe;">1.<tspan x="885.549px 896.349px " y="423.987px 423.987px ">76</tspan> e<tspan x="923.907px " y="423.987px ">V</tspan></text><text x="873.89px" y="469.145px" style="font-family:'Montserrat-Bold', 'Montserrat';font-weight:700;font-size:18px;fill:#688ebe;">1.<tspan x="885.374px 896.174px " y="469.145px 469.145px ">76</tspan> e<tspan x="923.732px " y="469.145px ">V</tspan></text></g><text x="914.406px" y="31.568px" style="font-family:'Montserrat-Regular', 'Montserrat';font-size:16px;fill:#464545;">[<tspan x="919.734px " y="31.568px ">1</tspan>]</text></svg>