<?xml version="1.0" encoding="UTF-8" standalone="no"?><!DOCTYPE svg PUBLIC "-//W3C//DTD SVG 1.1//EN" "http://www.w3.org/Graphics/SVG/1.1/DTD/svg11.dtd"><svg width="100%" height="100%" viewBox="0 0 600 600" version="1.1" xmlns="http://www.w3.org/2000/svg" xmlns:xlink="http://www.w3.org/1999/xlink" xml:space="preserve" xmlns:serif="http://www.serif.com/" style="fill-rule:evenodd;clip-rule:evenodd;stroke-linejoin:round;stroke-miterlimit:1.5;"><g><text x="11.044px" y="30.907px" style="font-family:'Montserrat-Bold', 'Montserrat';font-weight:700;font-size:20.195px;fill:#4d4d4d;">En<tspan x="38.67px 51.413px 59.935px " y="30.907px 30.907px 30.907px ">erg</tspan>y</text><text x="-0.382px" y="238.193px" style="font-family:'Montserrat-Regular', 'Montserrat';font-size:20.195px;fill:#4d4d4d;">CBM</text><g transform="matrix(0.841446,0,0,0.841446,-500.834,290.564)"><text x="601.102px" y="17.728px" style="font-family:'Montserrat-Bold', 'Montserrat';font-weight:700;font-size:24px;fill:#4d4d4d;">E</text><text x="617.206px" y="17.728px" style="font-family:'Montserrat-Bold', 'Montserrat';font-weight:700;font-size:16.638px;fill:#4d4d4d;">g</text></g><text x="69.256px" y="146.069px" style="font-family:'Montserrat-Regular', 'Montserrat';font-size:16.829px;fill:#4d4d4d;">E<tspan x="80.38px " y="146.069px ">q</tspan>uilibr<tspan x="134.721px " y="146.069px ">i</tspan>um</text><text x="69.256px" y="146.069px" style="font-family:'Montserrat-Regular', 'Montserrat';font-size:16.829px;fill:#4d4d4d;">E<tspan x="80.38px " y="146.069px ">q</tspan>uilibr<tspan x="134.721px " y="146.069px ">i</tspan>um</text><text x="196.371px" y="146.275px" style="font-family:'Montserrat-Regular', 'Montserrat';font-size:16.829px;fill:#4d4d4d;">C<tspan x="208.084px " y="146.275px ">o</tspan>mpr<tspan x="254.43px " y="146.275px ">e</tspan>ssion</text><g><text x="350.981px" y="139.501px" style="font-family:'Montserrat-Regular', 'Montserrat';font-size:16.829px;fill:#4d4d4d;">E<tspan x="362.105px " y="139.501px ">q</tspan>uilibr<tspan x="416.445px " y="139.501px ">i</tspan>um</text><text x="478.095px" y="139.707px" style="font-family:'Montserrat-Regular', 'Montserrat';font-size:16.829px;fill:#4d4d4d;">C<tspan x="489.808px " y="139.707px ">o</tspan>mpr<tspan x="536.155px " y="139.707px ">e</tspan>ssion</text></g><g transform="matrix(0.841446,0,0,0.841446,-395.467,37.8827)"><text x="601.102px" y="17.728px" style="font-family:'Montserrat-Bold', 'Montserrat';font-weight:700;font-size:24px;fill:#4d4d4d;">Usual:</text><text x="691.15px" y="17.728px" style="font-family:'Montserrat-Bold', 'Montserrat';font-weight:700;font-size:24px;fill:#e27f27;">d&apos; &lt; 0</text></g><g transform="matrix(0.841446,0,0,0.841446,-107.993,41.8837)"><text x="601.102px" y="17.728px" style="font-family:'Montserrat-Bold', 'Montserrat';font-weight:700;font-size:24px;fill:#4d4d4d;">Unusual:</text><text x="724.222px" y="17.728px" style="font-family:'Montserrat-Bold', 'Montserrat';font-weight:700;font-size:24px;fill:#e27f27;">d&apos; &gt; 0</text></g><text x="-0.49px" y="385.984px" style="font-family:'Montserrat-Regular', 'Montserrat';font-size:20.195px;fill:#4d4d4d;">V<tspan x="13.303px " y="385.984px ">B</tspan>M</text><path d="M60.16,50.2l-6.75,-13.5l-6.75,13.5l13.5,0Z" style="fill:#404040;fill-opacity:0.7;"/><path d="M53.41,47.5l0,553.635" style="fill:none;stroke:#404040;stroke-opacity:0.7;stroke-width:4.5px;stroke-dasharray:9,9,0,0;"/><path d="M336.65,1.5l0,600.831" style="fill:none;stroke:#404040;stroke-opacity:0.7;stroke-width:2px;stroke-dasharray:4,4,0,0;"/><path d="M52.709,225.926l535.563,0" style="fill:none;stroke:#4d4d4d;stroke-opacity:0.69;stroke-width:4.5px;stroke-dasharray:4.5,4.5;"/><path d="M51.046,377.083l532.673,0" style="fill:none;stroke:#4d4d4d;stroke-opacity:0.68;stroke-width:4.5px;stroke-dasharray:4.5,4.5;"/><g><rect x="72.251" y="379.948" width="101.145" height="62.929" style="fill:#4876b1;fill-opacity:0.55;"/><rect id="_-Rectangle-" serif:id="(Rectangle)" x="72.335" y="375.13" width="100.846" height="8.084" style="fill:#4876b1;"/></g><text x="86.078px" y="407.923px" style="font-family:'Montserrat-Regular', 'Montserrat';font-size:16.829px;fill:#0d0d0d;">bonding</text><g transform="matrix(0.841446,0,0,0.841446,-195.701,-203.375)"><text x="690.715px" y="472.658px" style="font-family:'Montserrat-Regular', 'Montserrat';font-size:20px;fill:#0d0d0d;">non-</text><text x="671.405px" y="492.658px" style="font-family:'Montserrat-Regular', 'Montserrat';font-size:20px;fill:#0d0d0d;">bonding</text></g><g transform="matrix(0.841446,0,0,0.841446,-193.508,4.66657)"><text x="691.125px" y="472.658px" style="font-family:'Montserrat-Regular', 'Montserrat';font-size:20px;fill:#0d0d0d;">anti-</text><text x="671.405px" y="492.658px" style="font-family:'Montserrat-Regular', 'Montserrat';font-size:20px;fill:#0d0d0d;">bonding</text></g><g transform="matrix(0.841446,0,0,0.841446,-478.16,-206.616)"><text x="691.125px" y="472.658px" style="font-family:'Montserrat-Regular', 'Montserrat';font-size:20px;fill:#0d0d0d;">anti-</text><text x="671.405px" y="492.658px" style="font-family:'Montserrat-Regular', 'Montserrat';font-size:20px;fill:#0d0d0d;">bonding</text></g><g><rect x="355.788" y="161.536" width="101.145" height="62.929" style="fill:#4876b1;fill-opacity:0.55;"/><rect id="_-Rectangle-1" serif:id="(Rectangle)" x="355.872" y="221.199" width="100.846" height="8.084" style="fill:#4876b1;"/></g><g><rect x="71.002" y="161.209" width="101.145" height="62.929" style="fill:#5c9a2e;fill-opacity:0.55;"/><rect id="_-Rectangle-2" serif:id="(Rectangle)" x="71.086" y="220.872" width="100.846" height="8.084" style="fill:#5c9a2e;"/></g><g><rect x="355.102" y="382.02" width="101.145" height="62.929" style="fill:#5c9a2e;fill-opacity:0.55;"/><rect id="_-Rectangle-3" serif:id="(Rectangle)" x="355.186" y="377.202" width="100.846" height="8.084" style="fill:#5c9a2e;"/></g><rect id="_-Rectangle-4" serif:id="(Rectangle)" x="194.441" y="169.492" width="100.846" height="8.084" style="fill:#5c9a2e;"/><rect id="_-Rectangle-5" serif:id="(Rectangle)" x="482.15" y="329.221" width="100.846" height="8.084" style="fill:#5c9a2e;"/><rect id="_-Rectangle-6" serif:id="(Rectangle)" x="194.037" y="371.87" width="100.846" height="8.084" style="fill:#4876b1;"/><rect id="_-Rectangle-7" serif:id="(Rectangle)" x="482.684" y="219.169" width="100.846" height="8.084" style="fill:#4876b1;"/><path d="M124.973,235.931l-3,-6l-3,6l6,0Z" style="fill:#4d4d4d;fill-opacity:0.68;"/><path d="M124.973,369.587l-3,6l-3,-6l6,0Z" style="fill:#4d4d4d;fill-opacity:0.68;"/><path d="M121.973,234.731l0,136.056" style="fill:none;stroke:#4d4d4d;stroke-opacity:0.68;stroke-width:2px;"/><path d="M6.371,253.335l-3,-6l-3,6l6,0Z" style="fill:#4d4d4d;fill-opacity:0.68;"/><path d="M6.371,355.253l-3,6l-3,-6l6,0Z" style="fill:#4d4d4d;fill-opacity:0.68;"/><path d="M3.371,252.135l0,104.318" style="fill:none;stroke:#4d4d4d;stroke-opacity:0.68;stroke-width:2px;stroke-dasharray:4,4,0,0;"/><path d="M408.563,235.65l-3,-6l-3,6l6,0Z" style="fill:#4d4d4d;fill-opacity:0.68;"/><path d="M408.563,369.306l-3,6l-3,-6l6,0Z" style="fill:#4d4d4d;fill-opacity:0.68;"/><path d="M405.563,234.45l0,136.056" style="fill:none;stroke:#4d4d4d;stroke-opacity:0.68;stroke-width:2px;"/><path d="M540.667,236.074l-3,-6l-3,6l6,0Z" style="fill:#4d4d4d;fill-opacity:0.68;"/><path d="M540.667,322.556l-3,6l-3,-6l6,0Z" style="fill:#4d4d4d;fill-opacity:0.68;"/><path d="M537.667,234.874l0,88.882" style="fill:none;stroke:#4d4d4d;stroke-opacity:0.68;stroke-width:2px;"/><path d="M247.731,183.717l-3,-6l-3,6l6,0Z" style="fill:#4d4d4d;fill-opacity:0.68;"/><path d="M247.731,365.339l-3,6l-3,-6l6,0Z" style="fill:#4d4d4d;fill-opacity:0.68;"/><path d="M244.731,182.517l0,184.022" style="fill:none;stroke:#4d4d4d;stroke-opacity:0.68;stroke-width:2px;"/></g></svg>