<?xml version="1.0" encoding="UTF-8" standalone="no"?><!DOCTYPE svg PUBLIC "-//W3C//DTD SVG 1.1//EN" "http://www.w3.org/Graphics/SVG/1.1/DTD/svg11.dtd"><svg width="100%" height="100%" viewBox="0 0 950 764" version="1.1" xmlns="http://www.w3.org/2000/svg" xmlns:xlink="http://www.w3.org/1999/xlink" xml:space="preserve" xmlns:serif="http://www.serif.com/" style="fill-rule:evenodd;clip-rule:evenodd;stroke-linejoin:round;stroke-miterlimit:1.5;"><g><g><text x="32.974px" y="727.824px" style="font-family:'Montserrat-Bold', 'Montserrat';font-weight:700;font-size:30.982px;fill:#4d4d4d;">E<tspan x="54.723px 77.316px 97.77px 111.448px 134.138px " y="727.824px 727.824px 727.824px 727.824px 727.824px ">nergy</tspan></text><text x="2.91px" y="271.189px" style="font-family:'Montserrat-Bold', 'Montserrat';font-weight:700;font-size:30.982px;fill:#4d4d4d;">C<tspan x="26.669px 51.466px " y="271.189px 271.189px ">BM</tspan></text><g transform="matrix(1.35059,0,0,1.29093,-800.36,351.535)"><text x="601.102px" y="17.728px" style="font-family:'Montserrat-Bold', 'Montserrat';font-weight:700;font-size:24px;fill:#4d4d4d;">E</text><text x="617.206px" y="17.728px" style="font-family:'Montserrat-Bold', 'Montserrat';font-weight:700;font-size:16.638px;fill:#4d4d4d;">g</text></g><text x="114.684px" y="129.854px" style="font-family:'Montserrat-Bold', 'Montserrat';font-weight:700;font-size:25.819px;fill:#4d4d4d;">E<tspan x="132.701px 151.339px 169.896px 178.027px 186.157px 194.288px 212.926px 224.46px 232.591px 251.148px " y="129.854px 129.854px 129.854px 129.854px 129.854px 129.854px 129.854px 129.854px 129.854px 129.854px ">quilibrium</tspan></text><text x="114.684px" y="129.854px" style="font-family:'Montserrat-Bold', 'Montserrat';font-weight:700;font-size:25.819px;fill:#4d4d4d;">E<tspan x="132.701px 151.339px 169.896px 178.027px 186.157px 194.288px 212.926px 224.46px 232.591px 251.148px " y="129.854px 129.854px 129.854px 129.854px 129.854px 129.854px 129.854px 129.854px 129.854px 129.854px ">quilibrium</tspan></text><text x="318.714px" y="130.169px" style="font-family:'Montserrat-Bold', 'Montserrat';font-weight:700;font-size:25.819px;fill:#4d4d4d;">C<tspan x="338px 355.693px 384.028px 402.666px 414.065px 431.11px 445.453px 459.796px 467.927px 485.62px " y="130.169px 130.169px 130.169px 130.169px 130.169px 130.169px 130.169px 130.169px 130.169px 130.169px ">ompression</tspan></text><g transform="matrix(1.35059,0,0,1.29093,-630.237,30.8766)"><text x="601.102px" y="17.728px" style="font-family:'Montserrat-Bold', 'Montserrat';font-weight:700;font-size:24px;fill:#4d4d4d;">Usual:</text><text x="691.15px" y="17.728px" style="font-family:'Montserrat-Bold', 'Montserrat';font-weight:700;font-size:24px;fill:#e27f27;">d&apos; &lt; 0</text></g><g><text x="444.2px" y="733.843px" style="font-family:'Montserrat-Bold', 'Montserrat';font-weight:700;font-size:30.982px;fill:#e27f27;">d<tspan x="466.631px 474.086px 483.259px 502.675px 511.849px 524.361px " y="733.843px 733.843px 733.843px 733.843px 733.843px 733.843px ">&apos; = -B</tspan></text><text x="567.383px" y="706.334px" style="font-family:'Montserrat-Bold', 'Montserrat';font-weight:700;font-size:30.982px;fill:#e27f27;">d<tspan x="589.813px 611.434px " y="706.334px 706.334px ">Eg</tspan></text><text x="567.383px" y="756.334px" style="font-family:'Montserrat-Bold', 'Montserrat';font-weight:700;font-size:30.982px;fill:#e27f27;">d<tspan x="589.813px " y="756.334px ">P</tspan></text><path d="M563.567,722.106l79.803,0" style="fill:none;stroke:#e27f27;stroke-width:3px;"/></g><g transform="matrix(1.35059,0,0,1.29093,-169.815,27.0149)"><text x="601.102px" y="17.728px" style="font-family:'Montserrat-Bold', 'Montserrat';font-weight:700;font-size:24px;fill:#4d4d4d;">Unusual:</text><text x="724.222px" y="17.728px" style="font-family:'Montserrat-Bold', 'Montserrat';font-weight:700;font-size:24px;fill:#e27f27;">d&apos; &gt; 0</text></g><text x="2.736px" y="497.926px" style="font-family:'Montserrat-Bold', 'Montserrat';font-weight:700;font-size:30.982px;fill:#4d4d4d;">V<tspan x="26.431px 51.228px " y="497.926px 497.926px ">BM</tspan></text><path d="M96,14.563l-6.75,-13.5l-6.75,13.5l13.5,0Z" style="fill:#404040;fill-opacity:0.7;"/><path d="M89.25,11.863l0,692.629" style="fill:none;stroke:#404040;stroke-opacity:0.7;stroke-width:4.5px;stroke-dasharray:9,9,0,0;"/><path d="M543.874,5.06l0,697.87" style="fill:none;stroke:#404040;stroke-opacity:0.7;stroke-width:2px;stroke-dasharray:4,4,0,0;"/><path d="M85.456,484.27l854.985,0" style="fill:none;stroke:#4d4d4d;stroke-opacity:0.68;stroke-width:4.5px;stroke-dasharray:4.5,4.5;"/><g><rect x="119.492" y="488.665" width="162.346" height="96.544" style="fill:#4876b1;fill-opacity:0.55;"/><rect id="_-Rectangle-" serif:id="(Rectangle)" x="119.626" y="481.273" width="161.866" height="12.402" style="fill:#4876b1;"/></g><text x="141.685px" y="531.584px" style="font-family:'Montserrat-Bold', 'Montserrat';font-weight:700;font-size:25.819px;fill:#0d0d0d;">b<tspan x="160.323px 178.016px 196.843px 215.535px 223.666px 242.493px " y="531.584px 531.584px 531.584px 531.584px 531.584px 531.584px ">onding</tspan></text><g transform="matrix(1.35059,0,0,1.29093,-310.595,-406.255)"><text x="690.075px" y="472.658px" style="font-family:'Montserrat-Bold', 'Montserrat';font-weight:700;font-size:20px;fill:#0d0d0d;">n<tspan x="704.015px " y="472.658px ">o</tspan>n-</text><text x="670.045px" y="492.658px" style="font-family:'Montserrat-Bold', 'Montserrat';font-weight:700;font-size:20px;fill:#0d0d0d;">bon<tspan x="710.885px " y="492.658px ">d</tspan>in<tspan x="744.685px " y="492.658px ">g</tspan></text></g><g transform="matrix(1.35059,0,0,1.29093,-307.074,-87.0828)"><text x="690.065px" y="472.658px" style="font-family:'Montserrat-Bold', 'Montserrat';font-weight:700;font-size:20px;fill:#0d0d0d;">anti-</text><text x="670.045px" y="492.658px" style="font-family:'Montserrat-Bold', 'Montserrat';font-weight:700;font-size:20px;fill:#0d0d0d;">bon<tspan x="710.885px " y="492.658px ">d</tspan>in<tspan x="744.685px " y="492.658px ">g</tspan></text></g><g transform="matrix(1.35059,0,0,1.29093,-763.965,-411.228)"><text x="690.065px" y="472.658px" style="font-family:'Montserrat-Bold', 'Montserrat';font-weight:700;font-size:20px;fill:#0d0d0d;">anti-</text><text x="670.045px" y="492.658px" style="font-family:'Montserrat-Bold', 'Montserrat';font-weight:700;font-size:20px;fill:#0d0d0d;">bon<tspan x="710.885px " y="492.658px ">d</tspan>in<tspan x="744.685px " y="492.658px ">g</tspan></text></g><g><rect x="574.591" y="153.582" width="162.346" height="96.544" style="fill:#4876b1;fill-opacity:0.55;"/><rect id="_-Rectangle-1" serif:id="(Rectangle)" x="574.726" y="245.116" width="161.866" height="12.402" style="fill:#4876b1;"/></g><g><rect x="117.486" y="153.081" width="162.346" height="96.544" style="fill:#5c9a2e;fill-opacity:0.55;"/><rect id="_-Rectangle-2" serif:id="(Rectangle)" x="117.62" y="244.615" width="161.866" height="12.402" style="fill:#5c9a2e;"/></g><g><rect x="573.492" y="491.843" width="162.346" height="96.544" style="fill:#5c9a2e;fill-opacity:0.55;"/><rect id="_-Rectangle-3" serif:id="(Rectangle)" x="573.626" y="484.452" width="161.866" height="12.402" style="fill:#5c9a2e;"/></g><rect id="_-Rectangle-4" serif:id="(Rectangle)" x="315.616" y="165.788" width="161.866" height="12.402" style="fill:#5c9a2e;"/><rect id="_-Rectangle-5" serif:id="(Rectangle)" x="777.414" y="410.84" width="161.866" height="12.402" style="fill:#5c9a2e;"/><rect id="_-Rectangle-6" serif:id="(Rectangle)" x="314.968" y="476.273" width="161.866" height="12.402" style="fill:#4876b1;"/><rect id="_-Rectangle-7" serif:id="(Rectangle)" x="778.271" y="242.003" width="161.866" height="12.402" style="fill:#4876b1;"/><path d="M202.299,264.513l-3,-6l-3,6l6,0Z" style="fill:#4d4d4d;fill-opacity:0.68;"/><path d="M202.299,475.975l-3,6l-3,-6l6,0Z" style="fill:#4d4d4d;fill-opacity:0.68;"/><path d="M199.299,263.313l0,213.862" style="fill:none;stroke:#4d4d4d;stroke-opacity:0.68;stroke-width:2px;"/><path d="M56.933,291.214l-3,-6l-3,6l6,0Z" style="fill:#4d4d4d;fill-opacity:0.68;"/><path d="M56.933,453.983l-3,6l-3,-6l6,0Z" style="fill:#4d4d4d;fill-opacity:0.68;"/><path d="M53.933,290.014l0,165.169" style="fill:none;stroke:#4d4d4d;stroke-opacity:0.68;stroke-width:2px;stroke-dasharray:4,4,0,0;"/><path d="M657.485,264.082l-3,-6l-3,6l6,0Z" style="fill:#4d4d4d;fill-opacity:0.68;"/><path d="M657.485,475.544l-3,6l-3,-6l6,0Z" style="fill:#4d4d4d;fill-opacity:0.68;"/><path d="M654.485,262.882l0,213.862" style="fill:none;stroke:#4d4d4d;stroke-opacity:0.68;stroke-width:2px;"/><path d="M869.524,264.732l-3,-6l-3,6l6,0Z" style="fill:#4d4d4d;fill-opacity:0.68;"/><path d="M869.524,403.821l-3,6l-3,-6l6,0Z" style="fill:#4d4d4d;fill-opacity:0.68;"/><path d="M866.524,263.532l0,141.489" style="fill:none;stroke:#4d4d4d;stroke-opacity:0.68;stroke-width:2px;"/><path d="M399.337,184.407l-3,-6l-3,6l6,0Z" style="fill:#4d4d4d;fill-opacity:0.68;"/><path d="M399.337,469.457l-3,6l-3,-6l6,0Z" style="fill:#4d4d4d;fill-opacity:0.68;"/><path d="M396.337,183.207l0,287.45" style="fill:none;stroke:#4d4d4d;stroke-opacity:0.68;stroke-width:2px;"/></g><g><text x="569.876px" y="119.777px" style="font-family:'Montserrat-Bold', 'Montserrat';font-weight:700;font-size:25.819px;fill:#4d4d4d;">E<tspan x="587.893px 606.531px 625.088px 633.219px 641.349px 649.48px 668.118px 679.652px 687.783px 706.34px " y="119.777px 119.777px 119.777px 119.777px 119.777px 119.777px 119.777px 119.777px 119.777px 119.777px ">quilibrium</tspan></text><text x="761.906px" y="120.093px" style="font-family:'Montserrat-Bold', 'Montserrat';font-weight:700;font-size:25.819px;fill:#4d4d4d;">C<tspan x="781.192px 798.885px 827.22px 845.858px 857.257px 874.302px 888.645px 902.988px 911.119px 928.812px " y="120.093px 120.093px 120.093px 120.093px 120.093px 120.093px 120.093px 120.093px 120.093px 120.093px ">ompression</tspan></text></g><path d="M88.125,252.369l859.623,0" style="fill:none;stroke:#4d4d4d;stroke-opacity:0.69;stroke-width:4.5px;stroke-dasharray:4.5,4.5;"/></g></svg>