<?xml version="1.0" encoding="UTF-8" standalone="no"?><!DOCTYPE svg PUBLIC "-//W3C//DTD SVG 1.1//EN" "http://www.w3.org/Graphics/SVG/1.1/DTD/svg11.dtd"><svg width="100%" height="100%" viewBox="0 0 729 782" version="1.1" xmlns="http://www.w3.org/2000/svg" xmlns:xlink="http://www.w3.org/1999/xlink" xml:space="preserve" xmlns:serif="http://www.serif.com/" style="fill-rule:evenodd;clip-rule:evenodd;stroke-linecap:round;stroke-linejoin:round;stroke-miterlimit:1.5;"><rect x="13.295" y="380.557" width="698.973" height="289.777" style="fill:#e27f27;fill-opacity:0.49;stroke:#e27f27;stroke-width:1px;"/><g><rect x="203.495" y="285.667" width="315.227" height="50.952" style="fill:#4876b1;fill-opacity:0.54;stroke:#4876b1;stroke-width:1px;"/><text x="308.661px" y="315.965px" style="font-family:'ArialMT', 'Arial', sans-serif;font-size:24px;">Selection</text></g><rect x="13.249" y="15.471" width="315.227" height="50.952" style="fill:#ebebeb;stroke:#000;stroke-width:1px;"/><text x="115.483px" y="44.116px" style="font-family:'ArialMT', 'Arial', sans-serif;font-size:24px;">Online DB</text><path d="M619.802,431.137l0,195.833l50.952,0l0,-195.833l-50.952,0Z" style="fill:#ebebeb;fill-opacity:0.51;stroke:#000;stroke-width:1px;"/><g transform="matrix(6.245e-17,-1,1,6.245e-17,-1404.1,1531.89)"><text x="951.631px" y="2059.44px" style="font-family:'ArialMT', 'Arial', sans-serif;font-size:24px;">AiiDA<tspan x="1010.32px 1016.99px " y="2059.44px 2059.44px "> D</tspan>B</text></g><g><rect x="263.509" y="456.505" width="195.833" height="37.873" style="fill:#ebebeb;fill-opacity:0.51;stroke:#000;stroke-width:1px;"/><text x="307.535px" y="482.936px" style="font-family:'ArialMT', 'Arial', sans-serif;font-size:24px;">Screening</text></g><g><rect x="267.89" y="561.368" width="195.833" height="37.873" style="fill:#ebebeb;fill-opacity:0.51;stroke:#000;stroke-width:1px;"/><text x="311.916px" y="587.799px" style="font-family:'ArialMT', 'Arial', sans-serif;font-size:24px;">Screening</text></g><rect x="395.455" y="15.04" width="315.227" height="50.952" style="fill:#ebebeb;stroke:#000;stroke-width:1px;"/><rect x="204.28" y="193.821" width="315.227" height="50.952" style="fill:#ebebeb;stroke:#000;stroke-width:1px;"/><g><rect x="203.476" y="399.775" width="315.227" height="50.952" style="fill:#4876b1;fill-opacity:0.54;stroke:#4876b1;stroke-width:1px;"/><text x="270.038px" y="428.248px" style="font-family:'ArialMT', 'Arial', sans-serif;font-size:24px;">Compression WF</text></g><g><rect x="201.175" y="503.621" width="315.227" height="50.952" style="fill:#4876b1;fill-opacity:0.54;stroke:#4876b1;stroke-width:1px;"/><text x="315.413px" y="536.266px" style="font-family:'ArialMT', 'Arial', sans-serif;font-size:24px;">DFT<tspan x="361.632px 368.3px " y="536.266px 536.266px "> W</tspan>F</text></g><g><rect x="201.871" y="607.376" width="315.227" height="50.952" style="fill:#4876b1;fill-opacity:0.54;stroke:#4876b1;stroke-width:1px;"/><g transform="matrix(1,0,0,1,-244.009,170.327)"><text x="562.487px" y="468.248px" style="font-family:'Arial-ItalicMT', 'Arial', sans-serif;font-style:italic;font-size:24px;">GW</text><text x="610.475px" y="468.248px" style="font-family:'ArialMT', 'Arial', sans-serif;font-size:24px;">WF</text></g></g><rect x="203.05" y="717.428" width="315.227" height="50.952" style="fill:#5c9a2e;fill-opacity:0.54;stroke:#5c9a2e;stroke-width:1px;"/><path d="M174.658,74.965l-3,-6l-3,6l6,0Z"/><path d="M549.657,71.816l3,-6l3,6l-6,0Z"/><path d="M171.658,73.765l0,40.991l380.999,0l0,-44.14" style="fill:none;stroke:#000;stroke-width:2px;stroke-linecap:butt;"/><path d="M364.449,184.167l-3,6l-3,-6l6,0Z"/><path d="M361.449,119.21l0,66.157" style="fill:none;stroke:#000;stroke-width:2px;stroke-linecap:butt;"/><path d="M364.449,274.2l-3,6l-3,-6l6,0Z"/><path d="M361.449,250.82l0,24.58" style="fill:none;stroke:#000;stroke-width:2px;stroke-linecap:butt;"/><path d="M364.08,367.765l-3,6l-3,-6l6,0Z"/><path d="M361.08,340.915l0,28.05" style="fill:none;stroke:#000;stroke-width:2px;stroke-linecap:butt;"/><path d="M364.662,705.852l-3,6l-3,-6l6,0Z"/><path d="M361.662,674.963l0,32.089" style="fill:none;stroke:#000;stroke-width:2px;stroke-linecap:butt;"/><text x="312.681px" y="224.637px" style="font-family:'ArialMT', 'Arial', sans-serif;font-size:24px;">Local DB</text><text x="476.382px" y="45.4px" style="font-family:'ArialMT', 'Arial', sans-serif;font-size:24px;">Other Sources</text><g transform="matrix(6.15827e-17,-1,1,6.15827e-17,-1554.67,719.005)"><text x="157.3px" y="1605.09px" style="font-family:'ArialMT', 'Arial', sans-serif;font-size:24px;">AiiDA</text></g><text x="224.892px" y="753.149px" style="font-family:'ArialMT', 'Arial', sans-serif;font-size:24px;">Optoelectronic Properties</text></svg>