<?xml version="1.0" encoding="UTF-8" standalone="no"?><!DOCTYPE svg PUBLIC "-//W3C//DTD SVG 1.1//EN" "http://www.w3.org/Graphics/SVG/1.1/DTD/svg11.dtd"><svg width="100%" height="100%" viewBox="0 0 729 695" version="1.1" xmlns="http://www.w3.org/2000/svg" xmlns:xlink="http://www.w3.org/1999/xlink" xml:space="preserve" xmlns:serif="http://www.serif.com/" style="fill-rule:evenodd;clip-rule:evenodd;stroke-linecap:round;stroke-linejoin:round;stroke-miterlimit:1.5;"><rect x="13.295" y="297.557" width="698.973" height="289.777" style="fill:#e27f27;fill-opacity:0.49;stroke:#e27f27;stroke-width:1px;"/><g><rect x="203.495" y="202.667" width="315.227" height="50.952" style="fill:#4876b1;fill-opacity:0.54;stroke:#4876b1;stroke-width:1px;"/><text x="308.661px" y="232.965px" style="font-family:'ArialMT', 'Arial', sans-serif;font-size:24px;">Selection</text></g><rect x="13.249" y="15.471" width="315.227" height="50.952" style="fill:#ebebeb;stroke:#000;stroke-width:1px;"/><text x="80.783px" y="44.116px" style="font-family:'ArialMT', 'Arial', sans-serif;font-size:24px;">Online Database</text><path d="M619.802,348.137l0,195.833l50.952,0l0,-195.833l-50.952,0Z" style="fill:#ebebeb;fill-opacity:0.51;stroke:#000;stroke-width:1px;"/><g transform="matrix(6.245e-17,-1,1,6.245e-17,-1321.1,1448.89)"><text x="951.631px" y="1976.44px" style="font-family:'ArialMT', 'Arial', sans-serif;font-size:24px;">AiiDA<tspan x="1010.32px 1016.99px " y="1976.44px 1976.44px "> D</tspan>B</text></g><g><rect x="263.509" y="373.505" width="195.833" height="37.873" style="fill:#ebebeb;fill-opacity:0.51;stroke:#000;stroke-width:1px;"/><text x="307.535px" y="399.936px" style="font-family:'ArialMT', 'Arial', sans-serif;font-size:24px;">Screening</text></g><g><rect x="267.89" y="478.368" width="195.833" height="37.873" style="fill:#ebebeb;fill-opacity:0.51;stroke:#000;stroke-width:1px;"/><text x="311.916px" y="504.799px" style="font-family:'ArialMT', 'Arial', sans-serif;font-size:24px;">Screening</text></g><rect x="395.455" y="15.04" width="315.227" height="50.952" style="fill:#ebebeb;stroke:#000;stroke-width:1px;"/><rect x="204.28" y="123.821" width="315.227" height="50.952" style="fill:#ebebeb;stroke:#000;stroke-width:1px;"/><g><rect x="203.476" y="316.775" width="315.227" height="50.952" style="fill:#4876b1;fill-opacity:0.54;stroke:#4876b1;stroke-width:1px;"/><text x="239.575px" y="345.248px" style="font-family:'ArialMT', 'Arial', sans-serif;font-size:24px;">Compression W<tspan x="409.848px 423.196px " y="345.248px 345.248px ">or</tspan>kﬂow</text></g><g><rect x="201.175" y="420.621" width="315.227" height="50.952" style="fill:#4876b1;fill-opacity:0.54;stroke:#4876b1;stroke-width:1px;"/><text x="284.95px" y="453.266px" style="font-family:'ArialMT', 'Arial', sans-serif;font-size:24px;">DFT<tspan x="331.169px 337.837px 360.055px 373.403px " y="453.266px 453.266px 453.266px 453.266px "> Wor</tspan>kﬂow</text></g><g><rect x="201.871" y="524.376" width="315.227" height="50.952" style="fill:#4876b1;fill-opacity:0.54;stroke:#4876b1;stroke-width:1px;"/><text x="271.327px" y="555.575px" style="font-family:'ArialMT', 'Arial', sans-serif;font-size:24px;">Optical W<tspan x="374.909px 388.257px " y="555.575px 555.575px ">or</tspan>kﬂow</text></g><rect x="203.05" y="632.428" width="315.227" height="50.952" style="fill:#5c9a2e;fill-opacity:0.54;stroke:#5c9a2e;stroke-width:1px;"/><path d="M174.658,73.851l-3,-6l-3,6l6,0Z"/><path d="M549.657,71.816l3,-6l3,6l-6,0Z"/><path d="M171.658,72.651l0,24.793l380.999,0l0,-26.828" style="fill:none;stroke:#000;stroke-width:2px;stroke-linecap:butt;"/><path d="M364.449,111.855l-3,6l-3,-6l6,0Z"/><path d="M361.449,99.21l0,13.845" style="fill:none;stroke:#000;stroke-width:2px;stroke-linecap:butt;"/><path d="M364.449,190.708l-3,6l-3,-6l6,0Z"/><path d="M361.449,182.82l0,9.088" style="fill:none;stroke:#000;stroke-width:2px;stroke-linecap:butt;"/><path d="M364.08,284.765l-3,6l-3,-6l6,0Z"/><path d="M361.08,257.915l0,28.05" style="fill:none;stroke:#000;stroke-width:2px;stroke-linecap:butt;"/><path d="M364.662,622.852l-3,6l-3,-6l6,0Z"/><path d="M361.662,591.963l0,32.089" style="fill:none;stroke:#000;stroke-width:2px;stroke-linecap:butt;"/><text x="277.981px" y="154.637px" style="font-family:'ArialMT', 'Arial', sans-serif;font-size:24px;">Local Database</text><g transform="matrix(1,0,0,1,-98.9725,-422.848)"><text x="571.358px" y="468.248px" style="font-family:'ArialMT', 'Arial', sans-serif;font-size:24px;">Other Sources</text><text x="726.093px" y="468.248px" style="font-family:'ArialMT', 'Arial', sans-serif;font-size:24px;">¹</text></g><g transform="matrix(6.15827e-17,-1,1,6.15827e-17,-1471.67,636.005)"><text x="157.3px" y="1522.09px" style="font-family:'ArialMT', 'Arial', sans-serif;font-size:24px;">AiiDA</text></g><text x="224.892px" y="656.149px" style="font-family:'ArialMT', 'Arial', sans-serif;font-size:24px;">Optoelectronic Properties</text></svg>